:FULLY-SPECIFIED
:FORCE-ALL-JOINTS-BE-3DOF
:DEGREES
340
root 9.38428 16.6417 12.01 6.01104 10.9799 -0.64597
lfemur 9.13423 7.15185 -11.5134
ltibia 38.9571 -0 0
lfoot 10.9029 0.164597 0.0540649
ltoes -11.4603 0 0
rfemur -35.0561 1.5062 23.1276
rtibia 41.2011 -0 0
rfoot -11.811 1.49642 0.00100837
rtoes -13.825 0 0
lowerback -6.6362 -4.53533 -2.82201
upperback -1.45938 -5.93576 3.21525
thorax 2.8284 -2.99719 4.34712
lowerneck -20.1579 -5.34447 -12.8957
upperneck 21.1238 -6.94903 13.7286
head 11.1474 -2.61631 6.13679
lclavicle 9.89886e-15 -4.77085e-15 0
lhumerus -28.704 -22.9172 101.343
lradius 26.013 -0 0
lwrist 3.51739 0 0
lhand -10.8833 -23.9854 0.00346716
lfingers 7.12502 0 0
lthumb 15.133 5.44196 0.00350632
rclavicle 9.89886e-15 -4.77085e-15 0
rhumerus -46.2834 4.56201 -81.1479
rradius 30.3237 -0 0
rwrist -14.8064 0 0
rhand -28.0516 -24.0242 -0.0124695
rfingers 7.12502 0 0
rthumb -1.43582 -54.0002 -0.0120484
341
root 9.36913 16.6751 12.1566 6.01739 10.8781 -0.827759
lfemur 7.49065 6.99123 -11.5433
ltibia 41.6849 -0 0
lfoot 11.1741 1.66274 0.0526206
ltoes -12.0816 0 0
rfemur -34.2803 1.74473 23.4669
rtibia 40.7822 -0 0
rfoot -12.23 1.53167 0.000401108
rtoes -13.6711 0 0
lowerback -6.52857 -4.39382 -2.67057
upperback -1.43286 -5.75956 3.22543
thorax 2.76425 -2.9076 4.30012
lowerneck -20.2031 -5.44862 -13.0749
upperneck 21.0011 -7.08851 13.981
head 11.1523 -2.66448 6.23794
lclavicle 1.2335e-14 5.30067e-16 0
lhumerus -28.7121 -21.9422 100.982
lradius 24.9412 -0 0
lwrist 3.34399 0 0
lhand -10.7079 -23.2527 0.00256002
lfingers 7.12502 0 0
lthumb 15.3019 6.16161 0.00256211
rclavicle 1.2335e-14 5.30067e-16 0
rhumerus -45.895 4.53882 -81.1511
rradius 30.7177 -0 0
rwrist -15.6431 0 0
rhand -28.2094 -23.12 -0.0124208
rfingers 7.12502 0 0
rthumb -1.58819 -53.0946 -0.0119953
342
root 9.35399 16.7085 12.3031 6.03181 10.763 -0.992777
lfemur 5.85816 6.86684 -11.5981
ltibia 44.2402 -0 0
lfoot 11.2173 3.12421 0.0336291
ltoes -12.472 0 0
rfemur -33.5043 1.97765 23.7883
rtibia 40.325 -0 0
rfoot -12.5815 1.55411 -7.32742e-05
rtoes -13.349 0 0
lowerback -6.42912 -4.24808 -2.52962
upperback -1.41286 -5.57624 3.23052
thorax 2.69825 -2.81439 4.25342
lowerneck -20.2223 -5.5444 -13.2365
upperneck 20.8796 -7.21597 14.2022
head 11.1488 -2.71045 6.32576
lclavicle 1.47712e-14 5.83098e-15 0
lhumerus -28.8062 -21.1095 100.655
lradius 24.0181 -0 0
lwrist 3.20402 0 0
lhand -10.5232 -22.5332 0.000799584
lfingers 7.12502 0 0
lthumb 15.4798 6.86725 0.000807879
rclavicle 1.47712e-14 5.83098e-15 0
rhumerus -45.537 4.62857 -81.2207
rradius 31.1678 -0 0
rwrist -16.4945 0 0
rhand -28.3705 -22.5253 -0.00831817
rfingers 7.12502 0 0
rthumb -1.74374 -52.4982 -0.00803009
343
root 9.33885 16.742 12.4496 6.05283 10.6598 -1.13299
lfemur 4.19306 6.82746 -11.6488
ltibia 46.6941 0 0
lfoot 10.9473 4.4229 0
ltoes -12.3893 0 0
rfemur -32.7326 2.16987 24.089
rtibia 39.8481 0 0
rfoot -12.8508 1.56448 0
rtoes -12.7681 0 0
lowerback -6.33867 -4.11091 -2.40954
upperback -1.40728 -5.40225 3.23169
thorax 2.62573 -2.72565 4.21215
lowerneck -20.2078 -5.62312 -13.3561
upperneck 20.7735 -7.32088 14.3584
head 11.1364 -2.75134 6.38526
lclavicle 1.72073e-14 1.11319e-14 0
lhumerus -29.0354 -20.4537 100.396
lradius 23.299 0 0
lwrist 3.08335 0 0
lhand -10.364 -21.8898 0
lfingers 7.12502 0 0
lthumb 15.6331 7.49854 0
rclavicle 1.72073e-14 1.11319e-14 0
rhumerus -45.2325 4.87978 -81.3777
rradius 31.6784 0 0
rwrist -17.2993 0 0
rhand -28.5563 -22.4469 0
rfingers 7.12502 0 0
rthumb -1.9232 -52.418 0
344
root 9.32969 16.7735 12.5843 6.0842 10.5629 -1.24325
lfemur 2.49455 6.8817 -11.7073
ltibia 49.0313 -0 0
lfoot 10.2923 5.62931 -0.0382852
ltoes -11.7231 0 0
rfemur -31.9641 2.32799 24.3638
rtibia 39.328 -0 0
rfoot -12.9985 1.55305 0.000341795
rtoes -11.7303 0 0
lowerback -6.25277 -3.97922 -2.31791
upperback -1.42023 -5.23303 3.22841
thorax 2.5398 -2.63899 4.18074
lowerneck -20.1437 -5.68399 -13.4353
upperneck 20.6737 -7.40221 14.4468
head 11.1083 -2.7876 6.41552
lclavicle 1.80231e-14 1.14632e-14 0
lhumerus -29.4052 -20.0086 100.206
lradius 22.7986 -0 0
lwrist 2.96379 0 0
lhand -10.2068 -21.2656 0.00144801
lfingers 7.12502 0 0
lthumb 15.7845 8.11064 0.00134645
rclavicle 1.80231e-14 1.14632e-14 0
rhumerus -45.0052 5.34421 -81.66
rradius 32.2872 -0 0
rwrist -18.1196 0 0
rhand -28.7682 -23.0581 0.0101124
rfingers 7.12502 0 0
rthumb -2.12789 -53.0272 0.00975986
345
root 9.32054 16.805 12.719 6.12776 10.4508 -1.32903
lfemur 0.796868 6.99019 -11.8028
ltibia 51.1916 -0 0
lfoot 9.30574 6.85864 -0.0654502
ltoes -10.6451 0 0
rfemur -31.1952 2.48214 24.6137
rtibia 38.7451 -0 0
rfoot -13.0283 1.51729 0.000409144
rtoes -10.2683 0 0
lowerback -6.16997 -3.84204 -2.24795
upperback -1.44628 -5.0545 3.21957
thorax 2.44284 -2.54747 4.15594
lowerneck -20.0331 -5.73365 -13.4943
upperneck 20.5673 -7.46838 14.4938
head 11.0638 -2.82161 6.42838
lclavicle 1.8839e-14 1.17945e-14 0
lhumerus -29.8742 -19.754 100.054
lradius 22.4756 -0 0
lwrist 2.85299 0 0
lhand -10.0191 -20.5988 0.00334327
lfingers 7.12502 0 0
lthumb 15.9652 8.76285 0.00312043
rclavicle 1.8839e-14 1.17945e-14 0
rhumerus -44.8439 5.99397 -82.0576
rradius 32.998 -0 0
rwrist -19.0167 0 0
rhand -28.9895 -24.228 0.0175216
rfingers 7.12502 0 0
rthumb -2.34157 -54.1948 0.0169117
